PathFileType	4	(X/Y/Z)	C:/Users/opensim2020/Desktop/walking_exp_matlab/subject01_walking04_straight_01.trc	
DataRate	CameraRate	NumFrames	NumMarkers	Units	OrigDataRate	OrigDataStartFrame	OrigNumFrames	
100.00	100.00	5	43	mm	100.00	974	216	
Frame#	Time	LFHD			RFHD			LBHD			RBHD			C7			T10			CLAV			STRN			RBAK			LSHO			LUPA			LELB			LFRM			LWRA			LWRB			LFIN			RSHO			RUPA			RELB			RFRM			RWRA			RWRB			RFIN			LASI			RASI			LPSI			RPSI			LTHI			LKNE			LTIB			LANK			LHEE			LTOE			RTHI			RKNE			RTIB			RANK			RHEE			RTOE			*39			*40			*41			*42			
		X1	Y1	Z1	X2	Y2	Z2	X3	Y3	Z3	X4	Y4	Z4	X5	Y5	Z5	X6	Y6	Z6	X7	Y7	Z7	X8	Y8	Z8	X9	Y9	Z9	X10	Y10	Z10	X11	Y11	Z11	X12	Y12	Z12	X13	Y13	Z13	X14	Y14	Z14	X15	Y15	Z15	X16	Y16	Z16	X17	Y17	Z17	X18	Y18	Z18	X19	Y19	Z19	X20	Y20	Z20	X21	Y21	Z21	X22	Y22	Z22	X23	Y23	Z23	X24	Y24	Z24	X25	Y25	Z25	X26	Y26	Z26	X27	Y27	Z27	X28	Y28	Z28	X29	Y29	Z29	X30	Y30	Z30	X31	Y31	Z31	X32	Y32	Z32	X33	Y33	Z33	X34	Y34	Z34	X35	Y35	Z35	X36	Y36	Z36	X37	Y37	Z37	X38	Y38	Z38	X39	Y39	Z39	X40	Y40	Z40	X41	Y41	Z41	X42	Y42	Z42	X43	Y43	Z43	

163	1.620	-1058.25049	560.41827	1668.40454	-943.62805	573.68494	1671.80664	-1051.91138	443.00803	1623.70715	-930.17773	454.30576	1626.65466	-1010.27185	402.25717	1427.75122	-1006.27112	378.45801	1132.20837	-1009.41809	547.57538	1364.18323	-1019.04785	597.41504	1212.35876	-937.90271	355.71942	1227.42126	-1170.68640	485.16602	1391.54578	-1262.97485	471.70419	1210.54236	-1280.73657	484.02740	1059.37708	-1312.03076	568.81714	981.48407	-1303.32556	694.41833	921.74042	-1325.04395	648.53986	890.03711	-1341.72803	723.10492	855.41913	-856.36176	482.55887	1385.81189	-765.98859	413.11169	1185.62634	-767.43536	404.83707	1062.50525	-735.12433	411.97214	944.08496	-749.25739	472.95685	815.37292	-713.43640	428.22388	823.97656	-714.04688	451.80865	741.12762	-1122.73474	552.64185	927.83984	-908.08331	568.06573	935.89752	-1059.32629	370.60324	941.31104	-913.62689	382.19083	944.60748	-1179.80188	488.53082	593.34613	-1172.25793	455.79044	461.24176	-1174.53870	309.08249	340.37155	-1125.97070	159.81084	179.33560	-1071.00720	119.14915	198.45401	-1108.38318	204.97195	37.84857	-852.74713	579.26660	607.11707	-887.53162	620.83716	456.62653	-880.17426	598.12451	280.33316	-934.45300	602.65363	76.97651	-985.19244	554.71722	38.18129	-939.96039	744.18317	42.85014	-966.10339	561.07166	1705.85132	-3101.93555	1973.10999	1023.38434	-3140.56299	2012.54089	1021.94293			 
164	1.630	-1055.78003	570.50745	1669.17957	-941.35376	583.83179	1672.40857	-1049.62170	453.12363	1624.48743	-928.03656	464.45078	1627.20093	-1008.67267	412.43567	1428.48669	-1005.06042	388.59247	1133.01306	-1007.91553	557.83423	1365.04199	-1017.76385	607.74622	1213.26538	-936.21002	366.35858	1228.08765	-1169.08972	495.20132	1392.55835	-1261.13025	480.66272	1211.46228	-1278.06409	490.93649	1060.13708	-1309.43433	574.37054	980.76337	-1301.10339	699.10162	918.93884	-1322.42981	652.54980	887.97992	-1339.32300	726.41016	851.81964	-854.90076	492.96140	1386.72473	-764.31873	424.52521	1186.28711	-765.64233	416.93024	1063.22168	-733.27954	424.96399	944.90247	-747.56610	486.44846	816.38824	-711.60681	441.87692	824.96881	-712.34332	465.72098	741.96552	-1120.70801	563.04749	928.92584	-906.16974	578.26819	937.16614	-1058.16101	380.96246	941.81067	-912.57233	392.47711	945.87476	-1180.06433	505.98898	593.04749	-1173.17322	475.93130	460.73657	-1175.51233	327.44104	343.49487	-1127.34021	174.49887	185.69180	-1073.13391	134.99335	207.53323	-1107.56653	211.96121	42.17618	-851.16675	586.76410	607.55707	-886.15015	626.73645	456.21570	-879.57092	601.71338	280.16177	-934.33533	603.01410	77.00920	-984.95313	554.73688	38.30558	-940.03406	744.73914	42.35184	-963.68176	571.12933	1706.38635	-3101.92334	1973.07593	1023.40588	-3140.49390	2012.55859	1022.06854			 
165	1.640	-1053.67212	580.59583	1670.13794	-939.08105	593.86578	1672.97937	-1047.67090	463.23810	1625.36450	-925.80530	474.59799	1627.64563	-1007.07471	422.54797	1429.31506	-1003.80371	398.66144	1133.85864	-1006.59283	568.00140	1365.82507	-1016.64294	617.80780	1214.09680	-934.48907	376.72101	1228.92578	-1167.58911	505.18588	1393.55396	-1259.60461	489.52997	1212.33105	-1275.29443	497.62976	1060.62610	-1306.89648	579.75055	979.94513	-1298.75769	703.55640	915.78473	-1319.78479	656.33350	885.71167	-1336.68701	729.47540	848.04559	-853.49023	503.54889	1387.66907	-762.57080	435.95877	1187.02014	-763.84863	429.00421	1063.89941	-731.47125	437.89929	945.59546	-745.89850	500.29865	817.39941	-709.80096	455.46945	825.62878	-710.66156	480.03140	742.78241	-1118.85083	573.18866	930.04541	-904.38080	588.29187	938.15088	-1056.74829	391.09103	942.11121	-911.13843	402.49976	946.82764	-1179.89795	522.97876	593.08276	-1173.90649	495.77353	460.44159	-1176.64404	346.44772	346.11649	-1127.77246	190.10487	192.43448	-1074.23645	151.27139	215.96133	-1107.76184	221.80116	46.88828	-850.13287	592.81769	607.54675	-884.91388	632.16931	455.68307	-878.94867	604.64563	280.21384	-934.33563	603.15570	76.79545	-984.83630	554.76453	38.34259	-940.06244	745.09991	41.92598	-961.30554	581.17017	1707.02588	-3102.00366	1973.09119	1023.38831	-3140.62939	2012.52100	1021.99872			 
166	1.650	-1051.69800	590.60852	1671.10767	-936.93976	603.99432	1673.57593	-1045.93396	473.42282	1626.31165	-924.30371	484.23590	1628.19019	-1005.70868	432.75021	1430.19153	-1002.38617	408.55981	1134.86523	-1005.39197	578.03308	1366.65198	-1015.65015	627.80151	1214.88232	-932.68011	386.99796	1229.95300	-1166.35596	515.20679	1394.46875	-1258.31970	498.35016	1213.18323	-1272.51221	504.27744	1061.10059	-1304.20654	584.93915	978.70459	-1296.48999	707.83026	912.66504	-1316.95911	659.91003	883.26154	-1333.97192	732.30847	844.07220	-852.25739	514.06860	1388.45215	-760.76801	447.39175	1187.82312	-762.06702	441.03760	1064.49609	-729.51672	450.96588	946.20801	-744.20978	514.36810	818.47009	-707.91827	469.61856	826.51147	-708.88403	494.70084	743.71063	-1117.60010	583.03247	930.76666	-902.73315	598.09509	938.88379	-1055.19373	400.90836	942.19904	-909.66052	411.82053	947.70532	-1179.79480	539.33954	593.54102	-1174.09167	515.62408	460.49094	-1177.76172	366.12350	348.08527	-1127.77612	206.40794	198.97411	-1073.59680	168.44336	222.93144	-1109.95325	234.80066	51.97470	-849.26141	598.46375	607.62463	-883.80695	637.26105	455.36923	-878.53259	607.50916	280.05322	-934.31824	603.35358	76.71643	-984.67078	554.77216	38.43081	-940.16040	745.31964	41.41963	-958.91644	591.21527	1707.68896	-3101.88208	1973.07117	1023.38684	-3140.70508	2012.47021	1021.92322			 
167	1.660	-1049.23279	600.87225	1672.00549	-934.72241	614.01965	1674.18640	-1044.08105	483.70258	1627.31409	-922.53485	494.32016	1628.75708	-1004.28064	442.90714	1431.14783	-1000.89856	418.37912	1135.90369	-1004.38165	588.09863	1367.49719	-1014.79462	637.68689	1215.61694	-930.88416	397.10495	1231.09180	-1165.30908	525.07916	1395.32690	-1257.10168	507.10641	1214.02356	-1269.77795	510.96432	1061.45300	-1301.59180	589.86548	977.33459	-1294.16028	711.88995	909.35449	-1314.13611	663.30408	880.68787	-1331.10046	734.83221	839.98627	-851.09369	524.72882	1389.33557	-758.96356	458.88193	1188.64612	-760.18439	452.99539	1065.10425	-727.60016	464.16138	946.74738	-742.21570	528.95050	819.80817	-706.02991	484.03677	827.22034	-706.92108	509.96185	744.83142	-1116.28333	592.67157	931.65698	-901.21735	607.81506	939.49115	-1053.52917	410.43893	942.21588	-908.26819	421.50955	948.26843	-1179.54150	555.32343	594.41913	-1174.11267	535.17413	460.94525	-1178.76563	385.62131	350.00317	-1127.15662	223.14700	205.46609	-1072.00415	185.86694	228.36465	-1113.78564	250.34003	57.34896	-848.49091	603.81207	607.48254	-882.94128	641.58960	454.83307	-878.13055	609.75879	280.00974	-934.28363	603.77679	76.93707	-984.50995	555.11530	38.35651	-940.29034	745.67303	41.18387	-956.60248	601.30420	1708.34033	-3101.80762	1973.04932	1023.38849	-3140.65918	2012.46460	1021.90424			 
